# xmcd
#
# Track frame offsets:
#	150
#	15050
#	27012
#	38675
#	48612
#	61737
#	72262
#	84237
#	94187
#	107012
#	118987
#	130662
#
# Disc length: 1864 seconds
#
# Revision: 0
# Processed by: cddbd v1.5.1PL0 Copyright (c) Steve Scherf et al.
# Submitted via: dBpowerAMP V4.0
#
DISCID=8c07460c
DTITLE=Larry Williams and Johnny Watson - Two For The Price Of One
DYEAR=1967
DGENRE=Soul
TTITLE0=Two For The Price Of One
TTITLE1=Keep On Lovin' You
TTITLE2=Ask Me
TTITLE3=Ain't Gonna Move
TTITLE4=Mercy, Mercy, Mercy
TTITLE5=Too Late
TTITLE6=Love Is Such A Funny Thing
TTITLE7=Takin' No Chances
TTITLE8=I'd Rather Fight Than Switch
TTITLE9=A Quitter Never Wins
TTITLE10=Nobody
TTITLE11=Find Yourself Someone To Love
EXTD=
EXTT0=
EXTT1=
EXTT2=
EXTT3=
EXTT4=
EXTT5=
EXTT6=
EXTT7=
EXTT8=
EXTT9=
EXTT10=
EXTT11=
PLAYORDER=
